<svg width="1935" height="1428" viewBox="0 0 1935 1428" fill="none" xmlns="http://www.w3.org/2000/svg">
<g opacity="0.2">
<path d="M1104.35 628.713L1074.13 612.996L1080.48 623.215L1116.8 649.226L1147.03 664.944L1140.68 654.725L1104.35 628.713Z" stroke="#626262" stroke-width="2" stroke-miterlimit="10"/>
<path d="M1104.4 628.293L1072.35 611.204L1078.52 621.869L1116.76 649.761L1148.8 666.85L1142.61 656.045L1104.4 628.293Z" stroke="#626262" stroke-width="2" stroke-miterlimit="10"/>
<path d="M1104.46 627.878L1070.43 609.305L1076.41 620.422L1116.7 650.178L1150.72 668.751L1144.74 657.633L1104.46 627.878Z" stroke="#626262" stroke-width="2" stroke-miterlimit="10"/>
<path d="M1104.65 627.437L1068.35 607.188L1074.3 618.861L1116.53 650.644L1152.81 670.753L1146.88 659.219L1104.65 627.437Z" stroke="#626262" stroke-width="2" stroke-miterlimit="10"/>
<path d="M1104.95 626.944L1066.39 605.078L1072.03 617.231L1116.2 651.111L1154.76 672.977L1149.12 660.825L1104.95 626.944Z" stroke="#626262" stroke-width="2" stroke-miterlimit="10"/>
<path d="M1105.23 626.317L1064.29 602.859L1069.72 615.323L1115.9 651.6L1156.86 675.197L1151.41 662.594L1105.23 626.317Z" stroke="#626262" stroke-width="2" stroke-miterlimit="10"/>
<path d="M1105.55 625.845L1062.29 600.424L1067.31 613.538L1115.58 652.073L1158.86 677.632L1153.84 664.518L1105.55 625.845Z" stroke="#626262" stroke-width="2" stroke-miterlimit="10"/>
<path d="M1106.03 625.473L1060.16 597.88L1064.74 611.515L1115.16 652.606L1161 680.062L1156.42 666.426L1106.03 625.473Z" stroke="#626262" stroke-width="2" stroke-miterlimit="10"/>
<path d="M1106.45 624.94L1058.01 595.342L1062.12 609.36L1114.7 653.114L1163.15 682.712L1159.01 668.557L1106.45 624.94Z" stroke="#626262" stroke-width="2" stroke-miterlimit="10"/>
<path d="M1107.02 624.383L1055.83 592.587L1059.38 607.164L1114.11 653.536L1165.32 685.468L1161.77 670.891L1107.02 624.383Z" stroke="#626262" stroke-width="2" stroke-miterlimit="10"/>
<path d="M1107.74 623.92L1053.77 589.685L1056.6 604.724L1113.42 654.135L1167.38 688.37L1164.56 673.331L1107.74 623.92Z" stroke="#626262" stroke-width="2" stroke-miterlimit="10"/>
<path d="M1108.43 623.423L1051.48 586.487L1053.61 602.023L1112.73 654.632L1169.68 691.568L1167.54 676.032L1108.43 623.423Z" stroke="#626262" stroke-width="2" stroke-miterlimit="10"/>
<path d="M1109.37 622.847L1049.26 582.996L1050.46 599.109L1111.79 655.208L1171.9 695.059L1170.67 678.81L1109.37 622.847Z" stroke="#626262" stroke-width="2" stroke-miterlimit="10"/>
<path d="M1110.34 622.417L1047.03 579.393L1047.29 596.083L1110.84 655.661L1174.12 698.548L1173.89 681.994L1110.34 622.417Z" stroke="#626262" stroke-width="2" stroke-miterlimit="10"/>
<path d="M1111.42 621.92L1044.9 575.717L1043.92 592.797L1109.74 656.135L1176.38 702.297L1177.23 685.258L1111.42 621.92Z" stroke="#626262" stroke-width="2" stroke-miterlimit="10"/>
<path d="M1112.76 621.368L1042.74 571.71L1040.55 589.313L1108.39 656.574L1178.41 706.232L1180.6 688.629L1112.76 621.368Z" stroke="#626262" stroke-width="2" stroke-miterlimit="10"/>
<path d="M1114.12 620.927L1040.69 567.666L1037.13 585.698L1107.01 656.992L1180.46 710.389L1184.02 692.356L1114.12 620.927Z" stroke="#626262" stroke-width="2" stroke-miterlimit="10"/>
<path d="M1115.75 620.547L1038.62 563.472L1033.55 581.845L1105.4 657.509L1182.54 714.584L1187.6 696.21L1115.75 620.547Z" stroke="#626262" stroke-width="2" stroke-miterlimit="10"/>
<path d="M1117.51 620.143L1036.76 558.98L1029.94 577.777L1103.63 657.818L1184.41 719.116L1191.35 700.279L1117.51 620.143Z" stroke="#626262" stroke-width="2" stroke-miterlimit="10"/>
<path d="M1119.45 619.934L1035.01 554.291L1026.16 573.462L1101.73 658.141L1186.15 723.649L1195.02 704.613L1119.45 619.934Z" stroke="#626262" stroke-width="2" stroke-miterlimit="10"/>
<path d="M1121.76 619.609L1033.5 549.451L1022.47 568.906L1099.42 658.466L1187.66 728.49L1198.72 709.17L1121.76 619.609Z" stroke="#626262" stroke-width="2" stroke-miterlimit="10"/>
<path d="M1124.08 619.412L1032.08 544.42L1018.6 564.113L1097.1 658.663L1189.08 733.521L1202.56 713.828L1124.08 619.412Z" stroke="#626262" stroke-width="2" stroke-miterlimit="10"/>
<path d="M1126.79 619.21L1030.9 539.306L1014.68 559.057L1094.37 658.845L1190.26 738.749L1206.46 718.864L1126.79 619.21Z" stroke="#626262" stroke-width="2" stroke-miterlimit="10"/>
<path d="M1129.79 619.06L1030.09 533.878L1010.87 553.777L1091.37 658.994L1191.07 744.177L1210.26 724.143L1129.79 619.06Z" stroke="#626262" stroke-width="2" stroke-miterlimit="10"/>
<path d="M1132.94 619.004L1029.52 528.249L1007.03 548.257L1088.22 658.937L1191.64 749.692L1214.12 729.684L1132.94 619.004Z" stroke="#626262" stroke-width="2" stroke-miterlimit="10"/>
<path d="M1136.49 619.058L1029.2 522.57L1003.28 542.473L1084.64 658.864L1191.95 755.486L1217.88 735.583L1136.49 619.058Z" stroke="#626262" stroke-width="2" stroke-miterlimit="10"/>
<path d="M1140.48 619.26L1029.38 516.602L999.501 536.445L1080.7 658.814L1191.78 761.338L1221.68 741.629L1140.48 619.26Z" stroke="#626262" stroke-width="2" stroke-miterlimit="10"/>
<path d="M1144.75 619.619L1029.94 510.537L995.785 530.022L1076.42 658.456L1191.21 767.404L1225.39 748.052L1144.75 619.619Z" stroke="#626262" stroke-width="2" stroke-miterlimit="10"/>
<path d="M1149.41 619.953L1031.01 504.33L992.186 523.471L1071.74 658.102L1190.15 773.726L1228.97 754.585L1149.41 619.953Z" stroke="#626262" stroke-width="2" stroke-miterlimit="10"/>
<path d="M1154.5 620.408L1032.62 498.007L988.807 516.516L1066.63 657.512L1188.54 780.047L1232.35 761.537L1154.5 620.408Z" stroke="#626262" stroke-width="2" stroke-miterlimit="10"/>
<path d="M1160.02 621.109L1034.98 491.451L985.525 509.303L1061.11 656.814L1186.17 786.605L1235.63 768.752L1160.02 621.109Z" stroke="#626262" stroke-width="2" stroke-miterlimit="10"/>
<path d="M1166.01 621.955L1038.08 485.087L982.66 502.226L1055.14 656.1L1183.05 792.835L1238.49 775.829L1166.01 621.955Z" stroke="#626262" stroke-width="2" stroke-miterlimit="10"/>
<path d="M1172.56 622.789L1042.24 478.862L980.26 495.044L1048.62 655.284L1178.94 799.21L1240.9 782.897L1172.56 622.789Z" stroke="#626262" stroke-width="2" stroke-miterlimit="10"/>
<path d="M1179.65 623.729L1047.06 472.429L978.121 487.749L1041.5 654.327L1174.07 805.496L1243.03 790.306L1179.65 623.729Z" stroke="#626262" stroke-width="2" stroke-miterlimit="10"/>
<path d="M1187.34 624.898L1053.02 465.962L976.392 480.111L1033.82 653.157L1168.11 811.963L1244.76 797.943L1187.34 624.898Z" stroke="#626262" stroke-width="2" stroke-miterlimit="10"/>
<path d="M1195.58 626.146L1060.09 459.401L975.091 472.348L1025.57 651.909L1161.07 818.653L1246.06 805.706L1195.58 626.146Z" stroke="#626262" stroke-width="2" stroke-miterlimit="10"/>
<path d="M1204.55 627.509L1068.31 452.761L974.354 464.344L1016.61 650.545L1152.82 825.164L1246.8 813.71L1204.55 627.509Z" stroke="#626262" stroke-width="2" stroke-miterlimit="10"/>
<path d="M1214.22 628.943L1077.98 446.051L974.341 456.2L1006.93 649.112L1143.16 831.875L1246.81 821.855L1214.22 628.943Z" stroke="#626262" stroke-width="2" stroke-miterlimit="10"/>
<path d="M1224.44 631.781L1087.6 437.781L973.727 444.964L996.693 646.146L1133.55 840.275L1247.42 833.092L1224.44 631.781Z" stroke="#626262" stroke-width="2" stroke-miterlimit="10"/>
<path d="M1235.51 635.579L1098.21 429.049L973.291 432.562L985.649 642.475L1122.92 848.876L1247.86 845.493L1235.51 635.579Z" stroke="#626262" stroke-width="2" stroke-miterlimit="10"/>
<path d="M1247.34 639.973L1110.37 420.647L973.6 419.645L973.831 638.099L1110.81 857.425L1247.55 858.296L1247.34 639.973Z" stroke="#626262" stroke-width="2" stroke-miterlimit="10"/>
<path d="M1260.19 644.908L1124.23 412.207L974.619 406.269L960.965 633.032L1096.93 865.733L1246.54 871.671L1260.19 644.908Z" stroke="#626262" stroke-width="2" stroke-miterlimit="10"/>
<path d="M1273.97 650.705L1139.76 404.218L976.372 392.607L947.18 627.351L1081.37 873.706L1244.78 885.449L1273.97 650.705Z" stroke="#626262" stroke-width="2" stroke-miterlimit="10"/>
<path d="M1288.85 657.247L1157.35 396.604L979.085 378.327L932.308 620.693L1063.8 881.337L1242.07 899.613L1288.85 657.247Z" stroke="#626262" stroke-width="2" stroke-miterlimit="10"/>
<path d="M1304.82 664.803L1177.13 389.464L982.894 363.754L916.334 613.251L1044.01 888.457L1238.26 914.3L1304.82 664.803Z" stroke="#626262" stroke-width="2" stroke-miterlimit="10"/>
<path d="M1322.07 673.3L1199.28 383.099L987.784 348.77L899.106 604.775L1021.9 894.975L1233.37 929.171L1322.07 673.3Z" stroke="#626262" stroke-width="2" stroke-miterlimit="10"/>
<path d="M1340.59 682.866L1224.01 377.32L994.011 333.549L880.562 595.189L997.139 900.735L1227.14 944.506L1340.59 682.866Z" stroke="#626262" stroke-width="2" stroke-miterlimit="10"/>
<path d="M1360.47 693.711L1251.58 372.585L1001.58 318.01L860.685 584.344L969.545 905.334L1219.57 960.045L1360.47 693.711Z" stroke="#626262" stroke-width="2" stroke-miterlimit="10"/>
<path d="M1381.98 705.862L1282.11 369.052L1010.84 302.245L839.172 572.193L939.04 909.004L1210.31 975.81L1381.98 705.862Z" stroke="#626262" stroke-width="2" stroke-miterlimit="10"/>
<path d="M1404.93 719.544L1316.07 366.837L1021.72 286.39L816.22 558.512L905.061 911.081L1199.43 991.666L1404.93 719.544Z" stroke="#626262" stroke-width="2" stroke-miterlimit="10"/>
<path d="M1429.66 734.941L1353.78 366.379L1034.68 270.397L791.495 543.114L867.373 911.675L1186.47 1007.66L1429.66 734.941Z" stroke="#626262" stroke-width="2" stroke-miterlimit="10"/>
</g>
</svg>
